<?xml version="1.0" encoding="UTF-8" standalone="no"?>
<!DOCTYPE svg PUBLIC "-//W3C//DTD SVG 1.1//EN"
 "http://www.w3.org/Graphics/SVG/1.1/DTD/svg11.dtd">
<!-- Generated by graphviz version 7.1.0 (20230122.1345)
 -->
<!-- Title: snakemake_dag Pages: 1 -->
<svg width="206pt" height="476pt"
 viewBox="0.00 0.00 206.00 476.00" xmlns="http://www.w3.org/2000/svg" xmlns:xlink="http://www.w3.org/1999/xlink">
<g id="graph0" class="graph" transform="scale(1 1) rotate(0) translate(4 472)">
<title>snakemake_dag</title>
<polygon fill="white" stroke="none" points="-4,4 -4,-472 202,-472 202,4 -4,4"/>
<!-- 0 -->
<g id="node1" class="node">
<title>0</title>
<path fill="none" stroke="#56d8d8" stroke-width="2" d="M91,-36C91,-36 61,-36 61,-36 55,-36 49,-30 49,-24 49,-24 49,-12 49,-12 49,-6 55,0 61,0 61,0 91,0 91,0 97,0 103,-6 103,-12 103,-12 103,-24 103,-24 103,-30 97,-36 91,-36"/>
<text text-anchor="middle" x="76" y="-15.5" font-family="sans" font-size="10.00">all</text>
</g>
<!-- 1 -->
<g id="node2" class="node">
<title>1</title>
<path fill="none" stroke="#59d856" stroke-width="2" d="M70,-468C70,-468 12,-468 12,-468 6,-468 0,-462 0,-456 0,-456 0,-444 0,-444 0,-438 6,-432 12,-432 12,-432 70,-432 70,-432 76,-432 82,-438 82,-444 82,-444 82,-456 82,-456 82,-462 76,-468 70,-468"/>
<text text-anchor="middle" x="41" y="-447.5" font-family="sans" font-size="10.00">bowtie_index</text>
</g>
<!-- 1&#45;&gt;0 -->
<g id="edge2" class="edge">
<title>1&#45;&gt;0</title>
<path fill="none" stroke="grey" stroke-width="2" d="M41,-431.07C41,-404.13 41,-351.62 41,-307 41,-307 41,-307 41,-161 41,-121.15 54.16,-76.78 64.34,-48.42"/>
<polygon fill="grey" stroke="grey" stroke-width="2" points="67.48,-50.02 67.69,-39.43 60.92,-47.57 67.48,-50.02"/>
</g>
<!-- 6 -->
<g id="node7" class="node">
<title>6</title>
<path fill="none" stroke="#d89556" stroke-width="2" d="M126,-396C126,-396 96,-396 96,-396 90,-396 84,-390 84,-384 84,-384 84,-372 84,-372 84,-366 90,-360 96,-360 96,-360 126,-360 126,-360 132,-360 138,-366 138,-372 138,-372 138,-384 138,-384 138,-390 132,-396 126,-396"/>
<text text-anchor="middle" x="111" y="-375.5" font-family="sans" font-size="10.00">bowtie</text>
</g>
<!-- 1&#45;&gt;6 -->
<g id="edge7" class="edge">
<title>1&#45;&gt;6</title>
<path fill="none" stroke="grey" stroke-width="2" d="M58.66,-431.34C66.31,-423.69 75.44,-414.56 83.92,-406.08"/>
<polygon fill="grey" stroke="grey" stroke-width="2" points="86.36,-408.59 90.96,-399.04 81.41,-403.64 86.36,-408.59"/>
</g>
<!-- 2 -->
<g id="node3" class="node">
<title>2</title>
<path fill="none" stroke="#d6d856" stroke-width="2" d="M141,-108C141,-108 81,-108 81,-108 75,-108 69,-102 69,-96 69,-96 69,-84 69,-84 69,-78 75,-72 81,-72 81,-72 141,-72 141,-72 147,-72 153,-78 153,-84 153,-84 153,-96 153,-96 153,-102 147,-108 141,-108"/>
<text text-anchor="middle" x="111" y="-87.5" font-family="sans" font-size="10.00">Estimate_PTR</text>
</g>
<!-- 2&#45;&gt;0 -->
<g id="edge1" class="edge">
<title>2&#45;&gt;0</title>
<path fill="none" stroke="grey" stroke-width="2" d="M102.17,-71.34C98.67,-64.34 94.56,-56.12 90.64,-48.28"/>
<polygon fill="grey" stroke="grey" stroke-width="2" points="93.91,-46.99 86.3,-39.61 87.65,-50.12 93.91,-46.99"/>
</g>
<!-- 3 -->
<g id="node4" class="node">
<title>3</title>
<path fill="none" stroke="#569ad8" stroke-width="2" d="M128.5,-180C128.5,-180 93.5,-180 93.5,-180 87.5,-180 81.5,-174 81.5,-168 81.5,-168 81.5,-156 81.5,-156 81.5,-150 87.5,-144 93.5,-144 93.5,-144 128.5,-144 128.5,-144 134.5,-144 140.5,-150 140.5,-156 140.5,-156 140.5,-168 140.5,-168 140.5,-174 134.5,-180 128.5,-180"/>
<text text-anchor="middle" x="111" y="-159.5" font-family="sans" font-size="10.00">bedtools</text>
</g>
<!-- 3&#45;&gt;2 -->
<g id="edge3" class="edge">
<title>3&#45;&gt;2</title>
<path fill="none" stroke="grey" stroke-width="2" d="M111,-143.34C111,-136.75 111,-129.08 111,-121.67"/>
<polygon fill="grey" stroke="grey" stroke-width="2" points="114.5,-121.93 111,-111.93 107.5,-121.93 114.5,-121.93"/>
</g>
<!-- 4 -->
<g id="node5" class="node">
<title>4</title>
<path fill="none" stroke="#97d856" stroke-width="2" d="M126,-252C126,-252 96,-252 96,-252 90,-252 84,-246 84,-240 84,-240 84,-228 84,-228 84,-222 90,-216 96,-216 96,-216 126,-216 126,-216 132,-216 138,-222 138,-228 138,-228 138,-240 138,-240 138,-246 132,-252 126,-252"/>
<text text-anchor="middle" x="111" y="-231.5" font-family="sans" font-size="10.00">picard</text>
</g>
<!-- 4&#45;&gt;3 -->
<g id="edge4" class="edge">
<title>4&#45;&gt;3</title>
<path fill="none" stroke="grey" stroke-width="2" d="M111,-215.34C111,-208.75 111,-201.08 111,-193.67"/>
<polygon fill="grey" stroke="grey" stroke-width="2" points="114.5,-193.93 111,-183.93 107.5,-193.93 114.5,-193.93"/>
</g>
<!-- 5 -->
<g id="node6" class="node">
<title>5</title>
<path fill="none" stroke="#d85656" stroke-width="2" d="M130,-324C130,-324 92,-324 92,-324 86,-324 80,-318 80,-312 80,-312 80,-300 80,-300 80,-294 86,-288 92,-288 92,-288 130,-288 130,-288 136,-288 142,-294 142,-300 142,-300 142,-312 142,-312 142,-318 136,-324 130,-324"/>
<text text-anchor="middle" x="111" y="-303.5" font-family="sans" font-size="10.00">samtools</text>
</g>
<!-- 5&#45;&gt;4 -->
<g id="edge5" class="edge">
<title>5&#45;&gt;4</title>
<path fill="none" stroke="grey" stroke-width="2" d="M111,-287.34C111,-280.75 111,-273.08 111,-265.67"/>
<polygon fill="grey" stroke="grey" stroke-width="2" points="114.5,-265.93 111,-255.93 107.5,-265.93 114.5,-265.93"/>
</g>
<!-- 6&#45;&gt;5 -->
<g id="edge6" class="edge">
<title>6&#45;&gt;5</title>
<path fill="none" stroke="grey" stroke-width="2" d="M111,-359.34C111,-352.75 111,-345.08 111,-337.67"/>
<polygon fill="grey" stroke="grey" stroke-width="2" points="114.5,-337.93 111,-327.93 107.5,-337.93 114.5,-337.93"/>
</g>
<!-- 7 -->
<g id="node8" class="node">
<title>7</title>
<path fill="none" stroke="#56d89a" stroke-width="2" d="M186,-468C186,-468 112,-468 112,-468 106,-468 100,-462 100,-456 100,-456 100,-444 100,-444 100,-438 106,-432 112,-432 112,-432 186,-432 186,-432 192,-432 198,-438 198,-444 198,-444 198,-456 198,-456 198,-462 192,-468 186,-468"/>
<text text-anchor="middle" x="149" y="-447.5" font-family="sans" font-size="10.00">trimmomatic_pe</text>
</g>
<!-- 7&#45;&gt;6 -->
<g id="edge8" class="edge">
<title>7&#45;&gt;6</title>
<path fill="none" stroke="grey" stroke-width="2" d="M139.41,-431.34C135.61,-424.34 131.15,-416.12 126.89,-408.28"/>
<polygon fill="grey" stroke="grey" stroke-width="2" points="130.01,-406.68 122.16,-399.56 123.86,-410.02 130.01,-406.68"/>
</g>
</g>
</svg>
